<svg xmlns="http://www.w3.org/2000/svg" xmlns:xlink="http://www.w3.org/1999/xlink" version="1.1" width="1000" height="1000" viewBox="0 0 1000 1000" xml:space="preserve">
<desc>Created with Fabric.js 3.5.0</desc>
<defs>
</defs>
<rect x="0" y="0" width="100%" height="100%" fill="rgba(255,255,255,0)"/>
<g transform="matrix(45.4545 0 0 45.4545 499.4995 499.4996)" id="999046">
<path style="stroke: none; stroke-width: 0; stroke-dasharray: none; stroke-linecap: butt; stroke-dashoffset: 0; stroke-linejoin: miter; stroke-miterlimit: 4; is-custom-font: none; font-file-url: none; fill: rgb(169,170,172); fill-rule: evenodd; opacity: 1;" vector-effect="non-scaling-stroke" transform=" translate(-12, -11.9021)" d="M 12.0867962 18 L 6 21.8042476 L 6 18 L 4 18 C 2.8954305 18 2 17.1045695 2 16 L 2 4 C 2 2.8954305 2.8954305 2 4 2 L 20 2 C 21.1045695 2 22 2.8954305 22 4 L 22 16 C 22 17.1045695 21.1045695 18 20 18 L 12.0867962 18 Z M 8 18.1957524 L 11.5132038 16 L 20 16 L 20 4 L 4 4 L 4 16 L 8 16 L 8 18.1957524 Z M 7 13 L 7 11 L 14 11 L 14 13 L 7 13 Z M 7 9 L 7 7 L 16 7 L 16 9 L 7 9 Z" stroke-linecap="round"/>
</g>
</svg>